<mxfile host="app.diagrams.net" agent="Mozilla/5.0 (Windows NT 10.0; Win64; x64) AppleWebKit/537.36 (KHTML, like Gecko) Chrome/131.0.0.0 Safari/537.36" version="25.0.3">
  <diagram id="C5RBs43oDa-KdzZeNtuy" name="Page-1">
    <mxGraphModel dx="1877" dy="522" grid="1" gridSize="10" guides="1" tooltips="1" connect="1" arrows="1" fold="1" page="1" pageScale="1" pageWidth="827" pageHeight="1169" math="0" shadow="0">
      <root>
        <mxCell id="WIyWlLk6GJQsqaUBKTNV-0" />
        <mxCell id="WIyWlLk6GJQsqaUBKTNV-1" parent="WIyWlLk6GJQsqaUBKTNV-0" />
        <mxCell id="y4HaMP5CLstWYBKzcSoI-2" style="edgeStyle=orthogonalEdgeStyle;rounded=0;orthogonalLoop=1;jettySize=auto;html=1;entryX=0.5;entryY=0;entryDx=0;entryDy=0;" edge="1" parent="WIyWlLk6GJQsqaUBKTNV-1" source="y4HaMP5CLstWYBKzcSoI-0" target="y4HaMP5CLstWYBKzcSoI-1">
          <mxGeometry relative="1" as="geometry" />
        </mxCell>
        <mxCell id="y4HaMP5CLstWYBKzcSoI-0" value="Start" style="strokeWidth=2;html=1;shape=mxgraph.flowchart.start_1;whiteSpace=wrap;" vertex="1" parent="WIyWlLk6GJQsqaUBKTNV-1">
          <mxGeometry x="310" y="50" width="100" height="60" as="geometry" />
        </mxCell>
        <mxCell id="y4HaMP5CLstWYBKzcSoI-9" style="edgeStyle=orthogonalEdgeStyle;rounded=0;orthogonalLoop=1;jettySize=auto;html=1;" edge="1" parent="WIyWlLk6GJQsqaUBKTNV-1" source="y4HaMP5CLstWYBKzcSoI-1" target="y4HaMP5CLstWYBKzcSoI-6">
          <mxGeometry relative="1" as="geometry" />
        </mxCell>
        <mxCell id="y4HaMP5CLstWYBKzcSoI-11" style="edgeStyle=orthogonalEdgeStyle;rounded=0;orthogonalLoop=1;jettySize=auto;html=1;" edge="1" parent="WIyWlLk6GJQsqaUBKTNV-1" source="y4HaMP5CLstWYBKzcSoI-1" target="y4HaMP5CLstWYBKzcSoI-3">
          <mxGeometry relative="1" as="geometry">
            <Array as="points">
              <mxPoint x="360" y="280" />
              <mxPoint x="650" y="280" />
            </Array>
          </mxGeometry>
        </mxCell>
        <mxCell id="y4HaMP5CLstWYBKzcSoI-1" value="Nhap diem" style="shape=parallelogram;html=1;strokeWidth=2;perimeter=parallelogramPerimeter;whiteSpace=wrap;rounded=1;arcSize=12;size=0.23;" vertex="1" parent="WIyWlLk6GJQsqaUBKTNV-1">
          <mxGeometry x="310" y="190" width="100" height="60" as="geometry" />
        </mxCell>
        <mxCell id="y4HaMP5CLstWYBKzcSoI-3" value="9&amp;lt;diem&amp;lt;=10" style="strokeWidth=2;html=1;shape=mxgraph.flowchart.decision;whiteSpace=wrap;" vertex="1" parent="WIyWlLk6GJQsqaUBKTNV-1">
          <mxGeometry x="600" y="310" width="100" height="100" as="geometry" />
        </mxCell>
        <mxCell id="y4HaMP5CLstWYBKzcSoI-4" value="8&amp;lt;diem&amp;lt;=9" style="strokeWidth=2;html=1;shape=mxgraph.flowchart.decision;whiteSpace=wrap;" vertex="1" parent="WIyWlLk6GJQsqaUBKTNV-1">
          <mxGeometry x="414" y="310" width="100" height="100" as="geometry" />
        </mxCell>
        <mxCell id="y4HaMP5CLstWYBKzcSoI-6" value="6&amp;lt;diem&amp;lt;=8" style="strokeWidth=2;html=1;shape=mxgraph.flowchart.decision;whiteSpace=wrap;" vertex="1" parent="WIyWlLk6GJQsqaUBKTNV-1">
          <mxGeometry x="220" y="310" width="100" height="100" as="geometry" />
        </mxCell>
        <mxCell id="y4HaMP5CLstWYBKzcSoI-26" style="edgeStyle=orthogonalEdgeStyle;rounded=0;orthogonalLoop=1;jettySize=auto;html=1;" edge="1" parent="WIyWlLk6GJQsqaUBKTNV-1" source="y4HaMP5CLstWYBKzcSoI-7" target="y4HaMP5CLstWYBKzcSoI-25">
          <mxGeometry relative="1" as="geometry" />
        </mxCell>
        <mxCell id="y4HaMP5CLstWYBKzcSoI-7" value="4&amp;lt;=diem&amp;lt;=6" style="strokeWidth=2;html=1;shape=mxgraph.flowchart.decision;whiteSpace=wrap;" vertex="1" parent="WIyWlLk6GJQsqaUBKTNV-1">
          <mxGeometry x="30" y="310" width="100" height="100" as="geometry" />
        </mxCell>
        <mxCell id="y4HaMP5CLstWYBKzcSoI-8" style="edgeStyle=orthogonalEdgeStyle;rounded=0;orthogonalLoop=1;jettySize=auto;html=1;entryX=0.5;entryY=0;entryDx=0;entryDy=0;entryPerimeter=0;" edge="1" parent="WIyWlLk6GJQsqaUBKTNV-1" source="y4HaMP5CLstWYBKzcSoI-1" target="y4HaMP5CLstWYBKzcSoI-7">
          <mxGeometry relative="1" as="geometry">
            <Array as="points">
              <mxPoint x="360" y="280" />
              <mxPoint x="80" y="280" />
            </Array>
          </mxGeometry>
        </mxCell>
        <mxCell id="y4HaMP5CLstWYBKzcSoI-10" style="edgeStyle=orthogonalEdgeStyle;rounded=0;orthogonalLoop=1;jettySize=auto;html=1;entryX=0.5;entryY=0;entryDx=0;entryDy=0;entryPerimeter=0;" edge="1" parent="WIyWlLk6GJQsqaUBKTNV-1" source="y4HaMP5CLstWYBKzcSoI-1" target="y4HaMP5CLstWYBKzcSoI-4">
          <mxGeometry relative="1" as="geometry">
            <Array as="points">
              <mxPoint x="360" y="280" />
              <mxPoint x="464" y="280" />
            </Array>
          </mxGeometry>
        </mxCell>
        <mxCell id="y4HaMP5CLstWYBKzcSoI-13" value="đúng" style="text;html=1;align=center;verticalAlign=middle;whiteSpace=wrap;rounded=0;" vertex="1" parent="WIyWlLk6GJQsqaUBKTNV-1">
          <mxGeometry x="70" y="440" width="60" height="30" as="geometry" />
        </mxCell>
        <mxCell id="y4HaMP5CLstWYBKzcSoI-14" value="đúng" style="text;html=1;align=center;verticalAlign=middle;whiteSpace=wrap;rounded=0;" vertex="1" parent="WIyWlLk6GJQsqaUBKTNV-1">
          <mxGeometry x="260" y="440" width="60" height="30" as="geometry" />
        </mxCell>
        <mxCell id="y4HaMP5CLstWYBKzcSoI-30" style="edgeStyle=orthogonalEdgeStyle;rounded=0;orthogonalLoop=1;jettySize=auto;html=1;entryX=0.5;entryY=0;entryDx=0;entryDy=0;" edge="1" parent="WIyWlLk6GJQsqaUBKTNV-1" source="y4HaMP5CLstWYBKzcSoI-15" target="y4HaMP5CLstWYBKzcSoI-28">
          <mxGeometry relative="1" as="geometry">
            <Array as="points">
              <mxPoint x="80" y="640" />
              <mxPoint x="360" y="640" />
            </Array>
          </mxGeometry>
        </mxCell>
        <mxCell id="y4HaMP5CLstWYBKzcSoI-15" value="trung bình" style="strokeWidth=2;html=1;shape=mxgraph.flowchart.display;whiteSpace=wrap;" vertex="1" parent="WIyWlLk6GJQsqaUBKTNV-1">
          <mxGeometry x="30" y="510" width="100" height="60" as="geometry" />
        </mxCell>
        <mxCell id="y4HaMP5CLstWYBKzcSoI-31" style="edgeStyle=orthogonalEdgeStyle;rounded=0;orthogonalLoop=1;jettySize=auto;html=1;entryX=0.5;entryY=0;entryDx=0;entryDy=0;" edge="1" parent="WIyWlLk6GJQsqaUBKTNV-1" source="y4HaMP5CLstWYBKzcSoI-16" target="y4HaMP5CLstWYBKzcSoI-28">
          <mxGeometry relative="1" as="geometry">
            <Array as="points">
              <mxPoint x="260" y="640" />
              <mxPoint x="360" y="640" />
            </Array>
          </mxGeometry>
        </mxCell>
        <mxCell id="y4HaMP5CLstWYBKzcSoI-16" value="khá" style="strokeWidth=2;html=1;shape=mxgraph.flowchart.display;whiteSpace=wrap;" vertex="1" parent="WIyWlLk6GJQsqaUBKTNV-1">
          <mxGeometry x="210" y="510" width="100" height="60" as="geometry" />
        </mxCell>
        <mxCell id="y4HaMP5CLstWYBKzcSoI-32" style="edgeStyle=orthogonalEdgeStyle;rounded=0;orthogonalLoop=1;jettySize=auto;html=1;entryX=0.5;entryY=0;entryDx=0;entryDy=0;" edge="1" parent="WIyWlLk6GJQsqaUBKTNV-1" source="y4HaMP5CLstWYBKzcSoI-17" target="y4HaMP5CLstWYBKzcSoI-28">
          <mxGeometry relative="1" as="geometry">
            <Array as="points">
              <mxPoint x="464" y="640" />
              <mxPoint x="360" y="640" />
            </Array>
          </mxGeometry>
        </mxCell>
        <mxCell id="y4HaMP5CLstWYBKzcSoI-17" value="giỏi" style="strokeWidth=2;html=1;shape=mxgraph.flowchart.display;whiteSpace=wrap;" vertex="1" parent="WIyWlLk6GJQsqaUBKTNV-1">
          <mxGeometry x="414" y="510" width="100" height="60" as="geometry" />
        </mxCell>
        <mxCell id="y4HaMP5CLstWYBKzcSoI-33" style="edgeStyle=orthogonalEdgeStyle;rounded=0;orthogonalLoop=1;jettySize=auto;html=1;entryX=0.5;entryY=0;entryDx=0;entryDy=0;" edge="1" parent="WIyWlLk6GJQsqaUBKTNV-1" source="y4HaMP5CLstWYBKzcSoI-18" target="y4HaMP5CLstWYBKzcSoI-28">
          <mxGeometry relative="1" as="geometry">
            <Array as="points">
              <mxPoint x="650" y="640" />
              <mxPoint x="360" y="640" />
            </Array>
          </mxGeometry>
        </mxCell>
        <mxCell id="y4HaMP5CLstWYBKzcSoI-18" value="xuất sắc" style="strokeWidth=2;html=1;shape=mxgraph.flowchart.display;whiteSpace=wrap;" vertex="1" parent="WIyWlLk6GJQsqaUBKTNV-1">
          <mxGeometry x="600" y="510" width="100" height="60" as="geometry" />
        </mxCell>
        <mxCell id="y4HaMP5CLstWYBKzcSoI-19" style="edgeStyle=orthogonalEdgeStyle;rounded=0;orthogonalLoop=1;jettySize=auto;html=1;entryX=0.5;entryY=0;entryDx=0;entryDy=0;entryPerimeter=0;" edge="1" parent="WIyWlLk6GJQsqaUBKTNV-1" source="y4HaMP5CLstWYBKzcSoI-7" target="y4HaMP5CLstWYBKzcSoI-15">
          <mxGeometry relative="1" as="geometry" />
        </mxCell>
        <mxCell id="y4HaMP5CLstWYBKzcSoI-20" style="edgeStyle=orthogonalEdgeStyle;rounded=0;orthogonalLoop=1;jettySize=auto;html=1;entryX=0.592;entryY=-0.053;entryDx=0;entryDy=0;entryPerimeter=0;" edge="1" parent="WIyWlLk6GJQsqaUBKTNV-1" source="y4HaMP5CLstWYBKzcSoI-6" target="y4HaMP5CLstWYBKzcSoI-16">
          <mxGeometry relative="1" as="geometry" />
        </mxCell>
        <mxCell id="y4HaMP5CLstWYBKzcSoI-21" style="edgeStyle=orthogonalEdgeStyle;rounded=0;orthogonalLoop=1;jettySize=auto;html=1;entryX=0.5;entryY=0;entryDx=0;entryDy=0;entryPerimeter=0;" edge="1" parent="WIyWlLk6GJQsqaUBKTNV-1" source="y4HaMP5CLstWYBKzcSoI-4" target="y4HaMP5CLstWYBKzcSoI-17">
          <mxGeometry relative="1" as="geometry" />
        </mxCell>
        <mxCell id="y4HaMP5CLstWYBKzcSoI-22" style="edgeStyle=orthogonalEdgeStyle;rounded=0;orthogonalLoop=1;jettySize=auto;html=1;entryX=0.5;entryY=0;entryDx=0;entryDy=0;entryPerimeter=0;" edge="1" parent="WIyWlLk6GJQsqaUBKTNV-1" source="y4HaMP5CLstWYBKzcSoI-3" target="y4HaMP5CLstWYBKzcSoI-18">
          <mxGeometry relative="1" as="geometry" />
        </mxCell>
        <mxCell id="y4HaMP5CLstWYBKzcSoI-23" value="đúng" style="text;html=1;align=center;verticalAlign=middle;whiteSpace=wrap;rounded=0;" vertex="1" parent="WIyWlLk6GJQsqaUBKTNV-1">
          <mxGeometry x="454" y="440" width="60" height="30" as="geometry" />
        </mxCell>
        <mxCell id="y4HaMP5CLstWYBKzcSoI-24" value="đúng" style="text;html=1;align=center;verticalAlign=middle;whiteSpace=wrap;rounded=0;" vertex="1" parent="WIyWlLk6GJQsqaUBKTNV-1">
          <mxGeometry x="650" y="450" width="60" height="30" as="geometry" />
        </mxCell>
        <mxCell id="y4HaMP5CLstWYBKzcSoI-29" style="edgeStyle=orthogonalEdgeStyle;rounded=0;orthogonalLoop=1;jettySize=auto;html=1;" edge="1" parent="WIyWlLk6GJQsqaUBKTNV-1" source="y4HaMP5CLstWYBKzcSoI-25" target="y4HaMP5CLstWYBKzcSoI-28">
          <mxGeometry relative="1" as="geometry">
            <Array as="points">
              <mxPoint x="-60" y="640" />
              <mxPoint x="360" y="640" />
            </Array>
          </mxGeometry>
        </mxCell>
        <mxCell id="y4HaMP5CLstWYBKzcSoI-25" value="không đạt" style="strokeWidth=2;html=1;shape=mxgraph.flowchart.display;whiteSpace=wrap;" vertex="1" parent="WIyWlLk6GJQsqaUBKTNV-1">
          <mxGeometry x="-110" y="510" width="100" height="60" as="geometry" />
        </mxCell>
        <mxCell id="y4HaMP5CLstWYBKzcSoI-27" value="sai" style="text;html=1;align=center;verticalAlign=middle;whiteSpace=wrap;rounded=0;" vertex="1" parent="WIyWlLk6GJQsqaUBKTNV-1">
          <mxGeometry x="-80" y="430" width="60" height="30" as="geometry" />
        </mxCell>
        <mxCell id="y4HaMP5CLstWYBKzcSoI-28" value="end" style="ellipse;whiteSpace=wrap;html=1;" vertex="1" parent="WIyWlLk6GJQsqaUBKTNV-1">
          <mxGeometry x="300" y="690" width="120" height="80" as="geometry" />
        </mxCell>
      </root>
    </mxGraphModel>
  </diagram>
</mxfile>
